# xmcd
#
# Track frame offsets: 
#        150
#        18797
#        36876
#        67588
#        89237
#        110086
#        126974
#        150846
#        182212
#
# Disc length: 2648 seconds
#
# Revision: 0
# Processed by: cddbd v1.5.2PL0 Copyright (c) Steve Scherf et al.
# Submitted via: ExactAudioCopy v1.3
#
DISCID=6d0a5609
DTITLE=Andreas Diehlmann Band - Point of No Return
DYEAR=2019
DGENRE=Blues Rock
TTITLE0=You Are My Woman
TTITLE1=Point of No Return
TTITLE2=Don't Go
TTITLE3=Long Forgotten Nightmare
TTITLE4=Sweet Mama
TTITLE5=Nothing But the Blues
TTITLE6=I'm a King Bee
TTITLE7=Deadman Walking
TTITLE8=Here Comes the Rain
EXTD=
EXTT0=
EXTT1=
EXTT2=
EXTT3=
EXTT4=
EXTT5=
EXTT6=
EXTT7=
EXTT8=
PLAYORDER=
